# xmcd
#
# Track frame offsets: 
#        150
#        14602
#        29018
#        41114
#        58314
#        72326
#        89102
#        103778
#        118606
#        128794
#        145534
#        156718
#        168690
#        192574
#        203802
#        221187
#        242234
#        257382
#        268799
#        283442
#        283774
#        298534
#
# Disc length: 4168 seconds
#
# Revision: 0
# Processed by: cddbd v1.5.2PL0 Copyright (c) Steve Scherf et al.
# Submitted via: ExactAudioCopy v0.95a3
#
DISCID=7b104616
DTITLE=Various Artist - Country Music from America
DYEAR=2001
DGENRE=Country
TTITLE0=Andy Williams - El Condor Pasa
TTITLE1=John Denver - Take Me Home Country Roads
TTITLE2=The Mamas and the Papas - Califonia Dreaming
TTITLE3=Linda Ronstadt - Heartbeats Accelerating
TTITLE4=The Brothers Four - Lemon Tree
TTITLE5=Hank Williams - Jambalaya
TTITLE6=Don Gibson - I Cant Stop Loving You
TTITLE7=Wynners - 4:55(Part Of Game)
TTITLE8=Patsy Cline - Seven Lonely Days
TTITLE9=Glen Campbell - Yesterday When I Was Young
TTITLE10=Frankie Laine - Rose, Rose I Love You
TTITLE11=Skeeter Davis - The End of the World
TTITLE12=The Carpenters - Sweet Sweet Smile
TTITLE13=Trio San Juan - Quizas Quizas Quizas
TTITLE14=The Brothers Four - Blownin' in the Wind
TTITLE15=Freddie Aguilar - Child
TTITLE16=John Denver - Follow Me
TTITLE17=Gest Always - Ready for Times Get Better
TTITLE18=Richard - When a Child is Born
TTITLE19=Dan Fogelberg - Longer
TTITLE20=The Bellamy Brothers - Let Your Love Flow
TTITLE21=The Kingston Trio - Where Have All The Flowers Gone?
EXTD=
EXTT0=
EXTT1=
EXTT2=
EXTT3=
EXTT4=
EXTT5=
EXTT6=
EXTT7=
EXTT8=
EXTT9=
EXTT10=
EXTT11=
EXTT12=
EXTT13=
EXTT14=
EXTT15=
EXTT16=
EXTT17=
EXTT18=
EXTT19=
EXTT20=
EXTT21=
PLAYORDER=
